<svg width="998" height="782" viewBox="0 0 998 782" fill="none"
 xmlns="http://www.w3.org/2000/svg">
 <g filter="url(#filter0_f_21_255)">
  <path d="M83.8613 198L66.3613 200L57.5921 190.5L56.3613 207.5L43.8613 212L57.5921 218L56.3613 234.519L66.3613 226L81.8613 229L75.8613 213.5L83.8613 198Z" fill="#EA9A22"/>
  <path d="M54.3613 187L50.8613 205L33.8613 211L50.8613 222L52.8613 237.5L56.3613 234.519L57.5921 218L43.8613 212L56.3613 207.5L57.5921 190.5L54.3613 187Z" fill="#EA9A22"/>
  <path d="M54.3613 187L50.8613 205L33.8613 211L50.8613 222L52.8613 237.5L56.3613 234.519L57.5921 218L43.8613 212L56.3613 207.5L57.5921 190.5L54.3613 187Z" fill="#FAB01E"/>
  <path d="M84.3056 198.229L84.7353 197.397L83.8046 197.503L66.5566 199.474L58.1064 190.32L57.9595 190.161L57.1767 189.313L54.7287 186.661L54.059 185.935L53.8705 186.905L50.4251 204.624L33.6949 210.529L32.7356 210.867L33.5897 211.42L50.3951 222.294L52.3654 237.564L52.4835 238.479L53.1856 237.881L55.7737 235.676L56.6856 234.899L56.8444 234.764L66.5025 226.537L81.7663 229.491L82.654 229.663L82.3276 228.82L76.4088 213.529L84.3056 198.229Z" stroke="#3D3D45"/>
 </g>
 <path d="M53.5503 185.663L52.8786 184.928L52.6904 185.905L49.1044 204.516L31.6936 210.717L30.7436 211.055L31.588 211.607L49.0746 223.025L51.1254 239.063L51.2431 239.984L51.9473 239.379L55.5873 236.25L65.8034 227.468L81.6855 230.57L82.5715 230.743L82.2482 229.9L76.088 213.841L84.3065 197.772L84.7317 196.941L83.804 197.048L65.8578 199.118L56.9103 189.336L53.5503 185.663Z" stroke="#3D3D45"/>
 <g filter="url(#filter1_f_21_255)">
  <path d="M779.861 475L762.361 477L753.592 467.5L752.361 484.5L739.861 489L753.592 495L752.361 511.519L762.361 503L777.861 506L771.861 490.5L779.861 475Z" fill="#EA9A22"/>
  <path d="M750.361 464L746.861 482L729.861 488L746.861 499L748.861 514.5L752.361 511.519L753.592 495L739.861 489L752.361 484.5L753.592 467.5L750.361 464Z" fill="#EA9A22"/>
  <path d="M750.361 464L746.861 482L729.861 488L746.861 499L748.861 514.5L752.361 511.519L753.592 495L739.861 489L752.361 484.5L753.592 467.5L750.361 464Z" fill="#FAB01E"/>
  <path d="M780.306 475.229L780.735 474.397L779.805 474.503L762.557 476.474L754.106 467.32L753.959 467.161L753.177 466.313L750.729 463.661L750.059 462.935L749.871 463.905L746.425 481.624L729.695 487.529L728.736 487.867L729.59 488.42L746.395 499.294L748.365 514.564L748.483 515.479L749.186 514.881L751.774 512.676L752.686 511.899L752.844 511.764L762.502 503.537L777.766 506.491L778.654 506.663L778.328 505.82L772.409 490.529L780.306 475.229Z" stroke="#3D3D45"/>
 </g>
 <path d="M749.55 462.663L748.879 461.928L748.69 462.905L745.104 481.516L727.694 487.717L726.744 488.055L727.588 488.607L745.075 500.025L747.125 516.063L747.243 516.984L747.947 516.379L751.587 513.25L761.803 504.468L777.685 507.57L778.571 507.743L778.248 506.9L772.088 490.841L780.306 474.772L780.732 473.941L779.804 474.048L761.858 476.118L752.91 466.336L749.55 462.663Z" stroke="#3D3D45"/>
 <path d="M173.973 606.074C181.484 618.376 190.403 647.305 165.989 664.61C147.954 674.094 118.664 702.305 145.783 739.277C163.109 757.168 209.151 785.288 254.715 754.635C262.198 744.313 271.917 716.454 250.933 687.597C241 682.22 221.69 676.566 223.915 696.973C225.584 700.481 231.322 706.055 240.921 700.291C243.244 698.23 248.37 695.852 250.283 702.825C253.922 710.533 255.969 728.128 235.049 736.844C214.128 745.559 203.053 730.631 200.131 722.077C197.317 713.797 195.026 693.006 208.376 676.081C221.725 659.155 205.486 634.1 195.697 623.689C191.928 619.613 182.307 610.383 173.973 606.074Z" fill="#EBE4D2"/>
 <path d="M200.952 637.397C198.833 627.899 188.823 607.415 165.734 601.461C142.645 595.506 134.111 616.375 131.021 621.04C127.932 625.706 98.0418 643.399 78.3489 642.178C53.7329 640.651 45.085 626.025 46.7727 612.362C48.4604 598.699 60.7231 608.068 57.7577 612.951C54.7923 617.833 72.8638 634.092 84.3135 620.137C93.4732 608.972 82.2989 601.927 75.5668 599.799C65.6396 594.851 42.1561 591.345 27.6397 616.903C9.49421 648.851 37.4219 696.201 62.9521 699.075C88.4823 701.95 121.626 690.193 134.714 645.878C145.184 610.426 172.054 614.114 184.179 620.389L200.952 637.397Z" fill="#FF4E26"/>
 <path d="M176.809 614.543L185.132 583.788C184.4 574.115 177.304 551.816 154.779 539.999C126.622 525.228 99.1158 541.807 98.8047 555.109C98.4935 568.411 91.6317 584.525 75.5668 599.799C79.8764 603.227 92.1976 608.15 107.005 600.421C125.514 590.76 123.284 588.873 137.795 588.582C152.307 588.291 170.122 596.046 176.809 614.543Z" fill="#82D6C7"/>
 <path d="M75.5668 599.799C82.2989 601.927 93.4732 608.972 84.3135 620.137C72.8638 634.092 54.7923 617.833 57.7577 612.951C60.7231 608.068 48.4604 598.699 46.7727 612.362C45.085 626.025 53.7329 640.651 78.3489 642.178C98.0418 643.399 127.932 625.706 131.021 621.04C134.111 616.375 142.645 595.506 165.734 601.461C188.823 607.415 198.833 627.899 200.952 637.397L184.179 620.389C172.054 614.114 145.184 610.426 134.714 645.878C121.626 690.193 88.4823 701.95 62.9521 699.075C37.4219 696.201 9.49421 648.851 27.6397 616.903C42.1561 591.345 65.6396 594.851 75.5668 599.799ZM75.5668 599.799C91.6317 584.525 98.4935 568.411 98.8047 555.109C99.1158 541.807 126.622 525.228 154.779 539.999C177.304 551.816 184.4 574.115 185.132 583.788L176.809 614.543C170.122 596.046 152.307 588.291 137.795 588.582C123.284 588.873 125.514 590.76 107.005 600.421C92.1976 608.15 79.8764 603.227 75.5668 599.799ZM173.973 606.074C181.484 618.376 190.403 647.305 165.989 664.61C147.954 674.094 118.664 702.305 145.783 739.277C163.109 757.168 209.151 785.288 254.715 754.635C262.198 744.313 271.917 716.454 250.933 687.597C241 682.22 221.69 676.566 223.915 696.973C225.584 700.481 231.322 706.055 240.921 700.291C243.244 698.23 248.37 695.852 250.283 702.825C253.922 710.533 255.969 728.128 235.049 736.844C214.128 745.559 203.053 730.631 200.131 722.077C197.317 713.797 195.026 693.006 208.376 676.081C221.725 659.155 205.486 634.1 195.697 623.689C191.928 619.613 182.307 610.383 173.973 606.074Z" stroke="#3D3D45" stroke-width="2"/>
 <path d="M828.807 275.487C825.488 261.461 825.996 231.193 854.577 222.326C874.666 218.913 911.269 201.194 896.975 157.628C886.063 135.24 851.032 94.2111 798.2 109.196C787.882 116.684 769.99 140.146 780.974 174.093C788.745 182.29 805.344 193.661 809.568 173.573C809.07 169.72 805.347 162.638 794.433 165.137C791.585 166.374 785.974 167.042 786.321 159.82C785.256 151.363 788.776 134.002 811.368 132.216C833.961 130.429 839.851 148.059 839.973 157.097C840.076 165.842 835.795 186.316 817.849 198.258C799.903 210.2 807.558 239.06 813.628 251.997C815.944 257.042 822.223 268.803 828.807 275.487Z" fill="#82D6C7"/>
 <path d="M812.891 237.334C811.955 247.02 815.108 269.6 835.206 282.432C855.303 295.263 869.897 278.077 874.282 274.602C878.668 271.127 912.576 263.592 930.915 270.869C953.84 279.966 957.517 296.555 951.669 309.018C945.821 321.482 937.075 308.766 941.41 305.047C945.745 301.327 933.618 280.259 918.4 289.968C906.225 297.735 914.659 307.903 920.397 312.016C928.297 319.803 949.53 330.43 971.266 310.644C998.437 285.912 986.597 232.23 963.222 221.568C939.848 210.907 904.692 211.788 878.487 249.846C857.524 280.292 833.128 268.442 823.551 258.711L812.891 237.334Z" fill="#EBE4D2"/>
 <path d="M828.741 266.557L811.278 293.206C808.969 302.627 808.788 326.027 826.529 344.256C848.706 367.042 880.001 359.826 884.428 347.279C888.855 334.731 900.383 321.545 920.397 312.016C917.365 307.42 907.183 298.913 890.707 301.661C870.113 305.096 871.646 307.582 857.762 303.351C843.878 299.12 829.353 286.215 828.741 266.557Z" fill="#FF4E26"/>
 <path d="M920.397 312.016C914.659 307.903 906.225 297.735 918.4 289.968C933.618 280.259 945.745 301.327 941.41 305.047C937.075 308.766 945.821 321.482 951.669 309.018C957.517 296.555 953.84 279.966 930.915 270.869C912.576 263.592 878.668 271.127 874.282 274.602C869.897 278.077 855.303 295.263 835.206 282.432C815.108 269.6 811.955 247.02 812.891 237.334L823.551 258.711C833.128 268.442 857.524 280.292 878.487 249.846C904.692 211.788 939.848 210.907 963.222 221.568C986.597 232.23 998.437 285.912 971.266 310.644C949.53 330.43 928.297 319.803 920.397 312.016ZM920.397 312.016C900.383 321.545 888.855 334.731 884.428 347.279C880.001 359.826 848.706 367.042 826.529 344.256C808.788 326.027 808.969 302.627 811.278 293.206L828.741 266.557C829.353 286.215 843.878 299.12 857.762 303.351C871.646 307.582 870.113 305.096 890.707 301.661C907.183 298.913 917.365 307.42 920.397 312.016ZM828.807 275.487C825.488 261.461 825.996 231.193 854.577 222.326C874.666 218.913 911.269 201.194 896.975 157.628C886.063 135.24 851.032 94.2111 798.2 109.196C787.882 116.684 769.99 140.146 780.974 174.093C788.745 182.29 805.344 193.661 809.568 173.573C809.07 169.72 805.347 162.638 794.433 165.137C791.584 166.374 785.974 167.042 786.321 159.82C785.256 151.363 788.776 134.002 811.368 132.216C833.961 130.429 839.851 148.059 839.973 157.097C840.076 165.842 835.795 186.316 817.849 198.258C799.903 210.2 807.558 239.06 813.628 251.997C815.945 257.042 822.223 268.803 828.807 275.487Z" stroke="#3D3D45" stroke-width="2"/>
 <circle cx="458" cy="373" r="284" fill="#FF4E26"/>
 <circle cx="458" cy="373" r="234" fill="#FAB01E"/>
 <circle cx="458.5" cy="372.5" r="186.5" fill="#EBE4D2"/>
 <circle cx="458" cy="373" r="133" fill="#F98BAB"/>
 <path fill-rule="evenodd" clip-rule="evenodd" d="M447 33.0047C559 32.338 786.8 102.805 802 390.005C797 507.505 719 742.905 447 744.505C333.667 745.338 103.6 675.605 90 390.005C90.6667 276.671 163 46.6047 447 33.0047ZM499.5 100V345L707.5 497.5C750.667 395.333 769.5 172.8 499.5 100ZM410.5 345V100C146.1 169.6 166.667 394 210 497.5L410.5 345ZM254.5 568L410.5 456.5V649.5C373.333 645.833 290.1 624.4 254.5 568ZM499.5 456.5V649.5C560.3 649.5 628.833 595.167 655.5 568L499.5 456.5Z" fill="#3D3D45" stroke="black"/>
 <path fill-rule="evenodd" clip-rule="evenodd" d="M470 1.00467C582 0.338004 809.8 70.8047 825 358.005C820 475.505 742 710.905 470 712.505C356.667 713.338 126.6 643.605 113 358.005C113.667 244.671 186 14.6047 470 1.00467ZM522.5 68V313L730.5 465.5C773.667 363.333 792.5 140.8 522.5 68ZM433.5 313V68C169.1 137.6 189.667 362 233 465.5L433.5 313ZM277.5 536L433.5 424.5V617.5C396.333 613.833 313.1 592.4 277.5 536ZM522.5 424.5V617.5C583.3 617.5 651.833 563.167 678.5 536L522.5 424.5Z" fill="#82D6C7" stroke="black"/>
 <g filter="url(#filter2_f_21_255)">
  <path d="M795 611.154L784.567 612.346L779.34 606.683L778.606 616.817L771.154 619.5L779.34 623.077L778.606 632.925L784.567 627.846L793.808 629.635L790.231 620.394L795 611.154Z" fill="#EA9A22"/>
  <path d="M777.414 604.596L775.327 615.327L765.192 618.904L775.327 625.462L776.519 634.702L778.606 632.925L779.34 623.077L771.154 619.5L778.606 616.817L779.34 606.683L777.414 604.596Z" fill="#EA9A22"/>
  <path d="M777.414 604.596L775.327 615.327L765.192 618.904L775.327 625.462L776.519 634.702L778.606 632.925L779.34 623.077L771.154 619.5L778.606 616.817L779.34 606.683L777.414 604.596Z" fill="#FAB01E"/>
  <path d="M795.444 611.383L795.874 610.551L794.943 610.657L784.763 611.821L779.854 606.503L779.707 606.344L778.924 605.496L777.781 604.257L777.111 603.532L776.923 604.501L774.891 614.951L765.026 618.433L764.067 618.771L764.921 619.324L774.861 625.756L776.023 634.766L776.141 635.681L776.844 635.083L778.018 634.082L778.93 633.305L779.089 633.17L784.709 628.383L793.713 630.126L794.6 630.297L794.274 629.454L790.778 620.424L795.444 611.383Z" stroke="#3D3D45"/>
 </g>
 <path d="M777.079 603.663L776.407 602.928L776.219 603.905L774.103 614.887L763.832 618.545L762.882 618.883L763.727 619.435L774.073 626.191L775.284 635.66L775.402 636.581L776.106 635.975L778.276 634.11L784.292 628.938L793.664 630.769L794.55 630.942L794.227 630.099L790.587 620.609L795.445 611.11L795.87 610.279L794.943 610.386L784.347 611.608L779.082 605.852L777.079 603.663Z" stroke="#3D3D45"/>
 <g filter="url(#filter3_f_21_255)">
  <path d="M105 161.154L94.5674 162.346L89.3396 156.683L88.6058 166.817L81.1539 169.5L89.3396 173.077L88.6058 182.925L94.5674 177.846L103.808 179.635L100.231 170.394L105 161.154Z" fill="#EA9A22"/>
  <path d="M87.4135 154.596L85.327 165.327L75.1924 168.904L85.327 175.462L86.5193 184.702L88.6058 182.925L89.3396 173.077L81.1539 169.5L88.6058 166.817L89.3396 156.683L87.4135 154.596Z" fill="#EA9A22"/>
  <path d="M87.4135 154.596L85.327 165.327L75.1924 168.904L85.327 175.462L86.5193 184.702L88.6058 182.925L89.3396 173.077L81.1539 169.5L88.6058 166.817L89.3396 156.683L87.4135 154.596Z" fill="#FAB01E"/>
  <path d="M105.444 161.383L105.874 160.551L104.943 160.657L94.7627 161.821L89.8539 156.503L89.707 156.344L88.9242 155.496L87.7809 154.257L87.1112 153.532L86.9227 154.501L84.8908 164.951L75.026 168.433L74.0666 168.771L74.9208 169.324L84.8608 175.756L86.0234 184.766L86.1414 185.681L86.8435 185.083L88.0182 184.082L88.9301 183.305L89.089 183.17L94.7085 178.383L103.713 180.126L104.6 180.297L104.274 179.454L100.778 170.424L105.444 161.383Z" stroke="#3D3D45"/>
 </g>
 <path d="M87.0789 153.663L86.4073 152.928L86.219 153.905L84.1031 164.887L73.8322 168.545L72.8823 168.883L73.7266 169.435L84.0733 176.191L85.284 185.66L85.4018 186.581L86.1059 185.975L88.2759 184.11L94.2921 178.938L103.664 180.769L104.55 180.942L104.227 180.099L100.587 170.609L105.445 161.11L105.87 160.279L104.943 160.386L94.3465 161.608L89.082 155.852L87.0789 153.663Z" stroke="#3D3D45"/>
 <path d="M98.2343 366C80.3239 379.731 86.7915 415.005 92.2642 430.925C71.3685 399.284 47.2393 393.861 37.7867 395.104C36.5927 416.597 67.3887 435.403 83.3091 441.373C43.9062 436.597 26.5927 452.318 22.8613 460.776C41.3688 476.299 73.8563 464.01 87.0404 454.806C59.5777 482.269 60.6722 505.055 64.6523 513.015C88.5329 508.239 99.9757 474.209 100.473 457.791C104.652 503.164 123.608 513.512 132.563 513.015C143.309 496.896 122.115 466 110.175 452.567C147.787 474.06 167.637 466.995 172.861 460.776C169.876 443.463 131.319 439.632 112.414 439.881C151.817 426.149 160.175 404.806 159.428 395.851C140.921 387.493 114.901 415.751 104.205 430.925C117.936 389.731 105.946 370.478 98.2343 366Z" fill="#FF4E26" stroke="#3D3D45"/>
 <circle cx="98.2343" cy="444.358" r="14.1791" fill="#FAB01E"/>
 <path d="M190.613 515C169.048 531.533 176.836 574.004 183.425 593.173C158.266 555.075 129.213 548.545 117.832 550.043C116.394 575.921 153.474 598.564 172.643 605.752C125.2 600.001 104.354 618.931 99.8613 629.114C122.145 647.804 161.261 633.008 177.135 621.926C144.069 654.992 145.387 682.427 150.179 692.012C178.932 686.261 192.71 645.288 193.309 625.52C198.341 680.151 221.164 692.611 231.946 692.012C244.885 672.603 219.367 635.404 204.99 619.23C250.276 645.108 274.177 636.602 280.467 629.114C276.873 608.268 230.448 603.656 207.686 603.955C255.128 587.422 265.192 561.724 264.293 550.941C242.01 540.878 210.681 574.902 197.802 593.173C214.335 543.573 199.898 520.391 190.613 515Z" fill="#F98BAB" stroke="#3D3D45"/>
 <circle cx="190.614" cy="609.346" r="17.0722" fill="#FF4E26"/>
 <path d="M805.232 337.032C823.143 323.3 816.675 288.027 811.203 272.106C832.098 303.748 856.227 309.171 865.68 307.927C866.874 286.435 836.078 267.629 820.158 261.659C859.561 266.435 876.874 250.713 880.605 242.256C862.098 226.733 829.61 239.022 816.426 248.226C843.889 220.763 842.795 197.977 838.814 190.017C814.934 194.793 803.491 228.823 802.994 245.241C798.814 199.868 779.859 189.519 770.904 190.017C760.158 206.136 781.352 237.032 793.292 250.465C755.68 228.972 735.829 236.037 730.605 242.256C733.591 259.569 772.148 263.4 791.053 263.151C751.65 276.882 743.292 298.226 744.038 307.181C762.546 315.539 788.566 287.28 799.262 272.106C785.531 313.3 797.521 332.554 805.232 337.032Z" fill="#F98BAB" stroke="#3D3D45"/>
 <circle cx="805.232" cy="258.673" r="14.1791" transform="rotate(180 805.232 258.673)" fill="#FF4E26"/>
 <path d="M712.854 188.032C734.418 171.499 726.631 129.028 720.042 109.859C745.201 147.957 774.253 154.486 785.635 152.989C787.072 127.111 749.993 104.468 730.824 97.2796C778.267 103.03 799.113 84.1011 803.605 73.9177C781.322 55.2282 742.206 70.024 726.331 81.106C759.398 48.0399 758.08 20.6046 753.288 11.0202C724.534 16.7708 710.757 57.7441 710.158 77.5118C705.126 22.8809 682.303 10.4212 671.521 11.0202C658.582 30.4286 684.1 67.628 698.477 83.8016C653.191 57.9238 629.29 66.4299 623 73.9177C626.594 94.7637 673.018 99.3762 695.781 99.0767C648.339 115.61 638.275 141.308 639.173 152.09C661.457 162.154 692.786 128.129 705.665 109.859C689.132 159.458 703.569 182.641 712.854 188.032Z" fill="#FF4E26" stroke="#3D3D45"/>
 <circle cx="712.853" cy="93.6854" r="17.0722" transform="rotate(180 712.853 93.6854)" fill="#FAB01E"/>
 <defs>
  <filter id="filter0_f_21_255" x="27.6099" y="180.871" width="61.9995" height="62.5868" filterUnits="userSpaceOnUse" color-interpolation-filters="sRGB">
   <feFlood flood-opacity="0" result="BackgroundImageFix"/>
   <feBlend mode="normal" in="SourceGraphic" in2="BackgroundImageFix" result="shape"/>
   <feGaussianBlur stdDeviation="2" result="effect1_foregroundBlur_21_255"/>
  </filter>
  <filter id="filter1_f_21_255" x="723.61" y="457.871" width="61.9995" height="62.5868" filterUnits="userSpaceOnUse" color-interpolation-filters="sRGB">
   <feFlood flood-opacity="0" result="BackgroundImageFix"/>
   <feBlend mode="normal" in="SourceGraphic" in2="BackgroundImageFix" result="shape"/>
   <feGaussianBlur stdDeviation="2" result="effect1_foregroundBlur_21_255"/>
  </filter>
  <filter id="filter2_f_21_255" x="758.941" y="598.467" width="41.8071" height="42.1925" filterUnits="userSpaceOnUse" color-interpolation-filters="sRGB">
   <feFlood flood-opacity="0" result="BackgroundImageFix"/>
   <feBlend mode="normal" in="SourceGraphic" in2="BackgroundImageFix" result="shape"/>
   <feGaussianBlur stdDeviation="2" result="effect1_foregroundBlur_21_255"/>
  </filter>
  <filter id="filter3_f_21_255" x="68.9409" y="148.467" width="41.8071" height="42.1926" filterUnits="userSpaceOnUse" color-interpolation-filters="sRGB">
   <feFlood flood-opacity="0" result="BackgroundImageFix"/>
   <feBlend mode="normal" in="SourceGraphic" in2="BackgroundImageFix" result="shape"/>
   <feGaussianBlur stdDeviation="2" result="effect1_foregroundBlur_21_255"/>
  </filter>
 </defs>
</svg>
