<svg width="650" height="427" viewBox="0 0 650 427" fill="none"
 xmlns="http://www.w3.org/2000/svg">
 <path d="M178.902 182.375C178.902 117.77 177.901 -6.53656 88.4018 2.46349C-1.09777 11.4635 -38.663 282.791 62.4021 375.963C94.4014 405.463 241.645 484.463 271.902 340.463C297.902 216.724 344.402 186.963 373.902 293.963C403.402 400.963 552.402 442.463 617.402 375.963C682.402 309.463 626.072 216.724 587.306 216.724C552.957 216.724 527.791 255.153 518.609 263.996C509.426 272.838 508.066 275.218 496.503 278.279C484.94 281.34 477.118 278.279 477.118 278.279C449.571 272.679 470.656 179.336 462.835 127.622C452.194 57.2633 375.674 10.629 313.402 36.4624C263.584 57.1291 231.577 150.431 231.917 182.375L253.402 293.963C165.261 304.963 178.902 244.463 178.902 182.375Z" fill="#F98BAB" stroke="#FF4E26" stroke-width="4"/>
 <path d="M163.402 211.963C159.864 152.941 163.402 43.4625 88.9019 43.4625C14.4016 43.4625 -16.8178 258.334 71.4018 349.462C116.902 396.463 170.402 420.177 226.402 397.962C282.402 375.747 303.902 81.8974 369.902 281.68C435.902 481.463 618.902 349.462 631.517 320.45C644.132 291.438 605.331 243.87 566.561 243.869C542.018 243.869 509.004 285.199 503.902 298.463C498.801 311.726 493.044 317.938 484.402 320.45C472.402 323.938 465.402 322.964 443.45 309.963C421.498 296.963 451.272 205.161 443.45 158.57C432.808 95.1807 371.053 38.0309 308.777 61.3053C258.955 79.9249 234.395 140.386 234.735 169.166L254.402 271.963C237.664 299.509 171.748 351.162 163.402 211.963Z" fill="#FF4E26" stroke="#FF4E26" stroke-width="4"/>
 <path d="M153.401 245.463C160.873 191.466 145.901 110.463 104.401 97.9626C11.3141 69.9243 6.6199 259.77 74.4014 329.463C128.061 384.635 254.401 440.463 270.401 304.963C286.401 169.463 370.539 157.968 406.72 297.465C442.901 436.962 548.401 349.727 567.901 329.463C587.401 309.198 563.115 275.926 538.901 279.462C514.687 282.999 506.402 318.963 485.402 323.963C464.402 328.963 434.401 306.831 430.401 297.465C426.401 288.099 444.821 208.184 430.401 168.463C412.377 118.81 358.429 63.3462 296.193 84.4315C246.405 101.3 226.561 177.889 226.901 203.963C226.901 203.963 255.478 299.727 234.978 317.729C214.478 335.732 143.401 317.729 153.401 245.463Z" fill="#EBE4D2"/>
 <path d="M144.516 302.765C113.228 275.286 162.741 125.371 89.4221 123.201C12.027 120.909 65.9425 294.886 89.422 321.47C112.902 348.054 229.197 454.963 275.108 321.47C321.019 187.978 360.129 275.804 401.402 332.013C442.674 388.222 487.902 374.462 502.902 374.462C517.902 374.462 578.599 322.626 561.459 302.765C544.319 282.904 525.524 294.49 520.649 302.765C520.649 302.765 505.402 326.462 494.402 332.013C483.402 337.563 448.902 321.47 442.902 302.765C439.682 292.727 445.83 302.765 414.883 198.699C383.935 94.6338 287.011 107.897 261.845 126.941C236.679 145.986 224.095 188.497 229.197 221.485C234.298 254.473 247.221 287.462 235.998 310.927C224.776 334.393 209.196 336.437 197.902 332.013C186.607 327.588 175.803 330.244 144.516 302.765Z" fill="#FAB01E" stroke="#FF4E26" stroke-width="4"/>
 <path d="M288.031 144.809C274.7 145.353 270.46 158.186 270.007 164.534C269.813 166.234 270.007 167.935 267.626 181.538C265.246 195.141 282.93 209.765 288.031 194.801C292.112 182.83 297.894 175.757 308.776 171.336C319.659 166.914 342.649 168.683 335.303 153.991C326.121 135.627 304.695 144.129 288.031 144.809Z" fill="#EBE4D2"/>
 <path d="M355.028 176.777C347.954 175.417 346.639 168.048 346.866 164.534C346.754 161.813 340.404 156.372 352.987 153.991C363.054 152.087 366.024 161.36 366.251 166.234C365.457 170.315 362.102 178.137 355.028 176.777Z" fill="#EBE4D2"/>
 <path d="M288.031 144.809C274.7 145.353 270.46 158.186 270.007 164.534C269.813 166.234 270.007 167.935 267.626 181.538C265.246 195.141 282.93 209.765 288.031 194.801C292.112 182.83 297.894 175.757 308.776 171.336C319.659 166.914 342.649 168.683 335.303 153.991C326.121 135.627 304.695 144.129 288.031 144.809Z" stroke="#FF4E26" stroke-width="2"/>
 <path d="M355.028 176.777C347.954 175.417 346.639 168.048 346.866 164.534C346.754 161.813 340.404 156.372 352.987 153.991C363.054 152.087 366.024 161.36 366.251 166.234C365.457 170.315 362.102 178.137 355.028 176.777Z" stroke="#FF4E26" stroke-width="2"/>
</svg>
