<svg width="1004" height="1004" viewBox="0 0 1004 1004" fill="none" xmlns="http://www.w3.org/2000/svg">
<path d="M660.484 122.896C639.305 82.3101 690.964 112.116 672.395 116.5C668.048 118.689 664.085 120.82 660.484 122.896C664.144 129.911 669.981 139.03 678.733 150.746C691.658 168.048 699.928 186.647 704.682 205.606C705.775 206.916 706.144 208.208 705.608 209.5C720.692 276.515 693.006 347.22 672.395 380.601C646.488 411.33 582.903 474.577 535.814 481.737C476.953 490.686 393.301 533.871 454.487 598.508C506.638 653.6 561.145 729.008 476.846 823.536C398.097 911.841 318.143 848.62 275.192 797.002C268.898 793.864 262.505 790.306 256.201 786.32H232L195.608 749.834C195.208 749.52 194.765 749.078 194.277 748.5L195.608 749.834C203.638 756.141 194.579 711.253 190.512 692.74C187.764 681.068 188.568 683.891 190.512 692.74C191.384 696.444 192.613 701.607 194.277 708.5C202.643 743.156 228.571 768.849 256.201 786.32H266.676C269.322 789.785 272.165 793.365 275.192 797.002C302.068 810.406 327.125 816.163 335.693 814.955C355.059 812.226 396.466 746.949 343.439 674.112C290.412 601.275 121.576 462.592 396.372 382.831C631.697 314.526 632 297 591 256C577.451 242.451 451 128 566.5 150.746C615 160.297 698.408 226.842 705.608 209.5C705.315 208.2 705.007 206.902 704.682 205.606C691.642 189.988 575.53 171.865 660.484 122.896Z" fill="#82D6C7"/>
<path d="M672.395 116.5C694.174 111.358 619.348 71.2467 678.733 150.746C738.118 230.245 699.251 337.107 672.395 380.601C646.488 411.33 582.903 474.577 535.814 481.737C476.953 490.686 393.301 533.871 454.487 598.508C506.638 653.6 561.145 729.008 476.846 823.536C392.547 918.064 306.869 838.957 266.676 786.32H232L194.277 748.5C210.717 767.987 175.85 632.167 194.277 708.5C212.704 784.833 316.326 817.684 335.693 814.955C355.059 812.226 396.466 746.949 343.439 674.112C290.412 601.275 121.576 462.592 396.372 382.831C631.697 314.526 632 297 591 256C577.451 242.451 451 128 566.5 150.746C615 160.297 698.408 226.842 705.608 209.5C712.807 192.158 556.899 174.655 672.395 116.5Z" stroke="#FF4E26" stroke-width="4"/>
<path d="M734.043 128.554C692.678 74 684.5 80.1138 657.5 67.5C623.929 51.8165 577 62 577 62C577 62 491.913 82.8639 499.799 142C507.684 201.136 574.566 236.83 595.05 243.019C621.926 251.139 747.701 324.939 490.396 393.459C189.935 473.473 364.075 608.898 424.579 690.66C485.082 772.421 413.697 850.658 368.982 855.817C324.266 860.976 302.985 796.622 280.5 712C258.015 627.377 158 681.499 158.5 712C159 742.5 170.756 754.335 184 779C204.402 816.993 254.5 863.993 254.5 863.993C300.286 923.133 440.699 965.723 530.868 863.993C621.037 762.262 558.829 677.626 499.799 615.44C430.541 542.479 521.465 497.296 586.056 489.119C637.729 482.579 705.972 414.717 733.635 381.604C761.978 334.455 801.741 217.837 734.043 128.554Z" fill="#FAB01E" stroke="#FF4E26" stroke-width="4"/>
<path d="M356.308 489.937C387.786 451.918 401.14 457.097 415.585 466.635C436.516 487.566 401.685 511.604 404.138 537.767C406.591 563.931 431.528 618.302 398.006 617.484C364.484 616.667 324.83 527.956 356.308 489.937Z" fill="#EBE4D2"/>
<path d="M467.503 490.755C486.472 477.019 479.222 466.499 473.226 462.956C454.258 443.988 437.524 452.872 431.528 459.686C435.616 475.765 448.534 504.491 467.503 490.755Z" fill="#EBE4D2"/>
<path d="M529.233 774.874C520.402 758.849 533.184 753.48 540.679 752.798C556.723 761.966 551.35 768.993 534.233 781.549C545.763 793.012 561.427 789.042 552.943 811.666C543.132 837.83 509.61 874.622 499.39 856.226C489.17 837.83 510.428 798.584 530.459 784.276C531.773 783.338 533.032 782.43 534.233 781.549C532.429 779.755 530.726 777.584 529.233 774.874Z" fill="#EBE4D2"/>
<path d="M415.585 466.635C401.14 457.097 387.786 451.918 356.308 489.937C324.83 527.956 364.484 616.667 398.006 617.484C431.528 618.302 406.591 563.931 404.138 537.767C401.685 511.604 436.516 487.566 415.585 466.635ZM473.226 462.956C479.222 466.499 486.472 477.019 467.503 490.755C448.534 504.491 435.616 475.765 431.528 459.686C437.524 452.872 454.258 443.988 473.226 462.956ZM540.679 752.798C533.184 753.48 520.402 758.849 529.233 774.874C540.27 794.905 562.755 785.503 552.943 811.666C543.132 837.83 509.61 874.622 499.39 856.226C489.17 837.83 510.428 798.584 530.459 784.276C550.49 769.968 557.849 762.609 540.679 752.798Z" stroke="#FF4E26" stroke-width="4"/>
</svg>
