<svg width="770" height="937" viewBox="0 0 770 937" fill="none" xmlns="http://www.w3.org/2000/svg">
<path d="M582.973 776.212C681.514 764.533 719.022 718.749 725.458 697.317C732.843 568.217 614.419 291.34 603 276.434C591.581 261.529 555.808 324.226 562.52 379.355C585.898 571.372 568.248 597.5 554.568 610.918C536.62 628.522 464.653 653.588 523.162 415.637C591.485 137.777 386.964 214.652 297.372 224.156C207.78 233.66 171.951 165.162 179.271 147.026C186.591 128.889 297.129 73.0562 372.448 95.2641C447.768 117.472 516.076 110.882 541.172 106.388L527.089 53.8282L238.579 101.573C172.897 110.062 61.549 144.709 101.263 264.978C140.977 385.247 233.536 375.747 307.323 358.129C393.893 337.458 389.466 431.495 367.786 486.945C350.442 531.305 373.424 617.995 387.082 655.795C411.321 700.801 484.432 787.891 582.973 776.212Z" fill="#82D6C7" stroke="#FF4E26" stroke-width="4"/>
<path d="M574.537 835.208C685.707 821.221 728.614 771.379 736.171 748.206C746.335 609.068 617.892 275.462 605.242 259.573C592.593 243.684 541.697 310.08 548.469 369.353C572.058 575.808 560.506 642.958 544.904 657.604C524.434 676.819 397.634 748.844 466.946 491.751C547.883 191.537 343.53 274.634 242.471 286.151C141.412 297.668 109.349 196.727 127.239 155.423C145.129 114.119 271.148 113 382.5 113C493.852 113 548.469 130 561 113C561 113 576 50.5 523.5 50.5C471 50.5 207 96.5 207 96.5C132.89 106.582 -3.80114 162.58 39.2157 291.533C82.2326 420.487 186.634 408.932 270.004 388.903C367.818 365.404 361.487 466.739 336.272 526.765C316.1 574.785 340.748 667.816 355.594 708.329C382.254 756.45 463.367 849.195 574.537 835.208Z" fill="#FAB01E" stroke="#FF4E26" stroke-width="4"/>
<path d="M450.437 327.388C467.624 373.658 456.462 382.635 440.979 390.374C412.387 398.036 408.985 355.853 385.1 344.895C361.215 333.938 301.66 328.349 319.129 299.726C336.598 271.104 433.251 281.118 450.437 327.388Z" fill="#EBE4D2"/>
<path d="M394.132 423.277C396.543 446.572 409.278 445.554 415.344 442.133C441.256 435.19 441.929 416.256 439.026 407.657C423.056 403.157 391.72 399.982 394.132 423.277Z" fill="#EBE4D2"/>
<path d="M117.213 334.677C135.506 335.042 133.765 348.796 130.607 355.628C114.646 364.938 111.247 356.772 108.932 335.67C93.2393 339.924 88.845 355.474 73.4942 336.815C55.7416 315.236 40.6395 267.809 61.6811 268.156C82.7227 268.504 106.081 306.536 108.457 331.038C108.612 332.645 108.769 334.189 108.932 335.67C111.387 335.004 114.119 334.615 117.213 334.677Z" fill="#EBE4D2"/>
<path d="M440.979 390.374C456.462 382.635 467.624 373.658 450.437 327.388C433.251 281.118 336.598 271.104 319.129 299.726C301.66 328.349 361.215 333.938 385.1 344.895C408.985 355.853 412.387 398.036 440.979 390.374ZM415.344 442.133C409.278 445.554 396.543 446.572 394.132 423.277C391.72 399.982 423.056 403.157 439.026 407.657C441.929 416.256 441.256 435.19 415.344 442.133ZM130.607 355.628C133.765 348.796 135.506 335.042 117.213 334.677C94.3461 334.22 91.2468 358.393 73.4942 336.815C55.7416 315.236 40.6395 267.809 61.6811 268.156C82.7227 268.504 106.081 306.536 108.457 331.038C110.832 355.54 113.526 365.592 130.607 355.628Z" stroke="#FF4E26" stroke-width="4"/>
</svg>
